PathFileType	4	(x/y/z)	Passive_Pref0001.trc
DataRate	CameraRate	NumFrames	NumMarkers	Units	OrigDataRate	OrigDataStartFrame	OrigNumFrames
240	240	10	50	mm	240	273	311
Frame#	Time	R_AC			L_AC			HEAD			STERN			C7			L_IC			R_IC			L_ASIS			R_ASIS			L_GT			R_GT			R_PSIS			L_PSIS			SACRAL			L_LAT_KNEE			L_MED_KNEE			R_LAT_KNEE			R_MED_KNEE			L_LAT_ANK			L_MED_ANK			R_LAT_ANK			R_MED_ANK			L_THIGH_PROX_POST			L_THIGH_PROX_ANT			L_THIGH_DIST_ANT			L_THIGH_DIST_POST			R_THIGH_PROX_POST			R_THIGH_PROX_ANT			R_THIGH_DIST_ANT			R_THIGH_DIST_POST			L_SHANK_PROX_POST			L_SHANK_PROX_ANT			L_SHANK_DIST_ANT			L_SHANK_DIST_POST			R_SHANK_PROX_POST			R_SHANK_PROX_ANT			R_SHANK_DIST_ANT			R_SHANK_DIST_POST			L_HEEL_LAT			L_HEEL_SUP			L_HEEL_MED			R_HEEL_LAT			R_HEEL_SUP			R_HEEL_MED			L_1ST_MET			L_5TH_MET			L_TOE			R_1ST_MET			R_5TH_MET			R_TOE			
		X1	Y1	Z1	X2	Y2	Z2	X3	Y3	Z3	X4	Y4	Z4	X5	Y5	Z5	X6	Y6	Z6	X7	Y7	Z7	X8	Y8	Z8	X9	Y9	Z9	X10	Y10	Z10	X11	Y11	Z11	X12	Y12	Z12	X13	Y13	Z13	X14	Y14	Z14	X15	Y15	Z15	X16	Y16	Z16	X17	Y17	Z17	X18	Y18	Z18	X19	Y19	Z19	X20	Y20	Z20	X21	Y21	Z21	X22	Y22	Z22	X23	Y23	Z23	X24	Y24	Z24	X25	Y25	Z25	X26	Y26	Z26	X27	Y27	Z27	X28	Y28	Z28	X29	Y29	Z29	X30	Y30	Z30	X31	Y31	Z31	X32	Y32	Z32	X33	Y33	Z33	X34	Y34	Z34	X35	Y35	Z35	X36	Y36	Z36	X37	Y37	Z37	X38	Y38	Z38	X39	Y39	Z39	X40	Y40	Z40	X41	Y41	Z41	X42	Y42	Z42	X43	Y43	Z43	X44	Y44	Z44	X45	Y45	Z45	X46	Y46	Z46	X47	Y47	Z47	X48	Y48	Z48	X49	Y49	Z49	X50	Y50	Z50	

273	1.137	614.85	1541.5	502.08	596.07	1561.4	98.919	666.31	1859.2	319.64	691.99	1495.3	306.63	543.16	1589	310.8	579.25	1134.1	140.8	584.87	1141.8	476.54	652.85	1047.7	179.31	645.31	1045.5	448.4	569.24	964.92	116.38	529.9	972.75	480.81	432.26	1054.7	337.12	434.7	1046.6	251.42	421.82	1017.5	294.4	751.53	592.03	152.54	763.86	599.2	290.6	477.45	558.82	443.72	488.53	560.65	310.18	760.7	144.35	152.97	742.34	136.36	232.7	352.31	114.7	377.8	388.98	136.5	277.09	667.02	816.49	128.44	719.97	837.37	164.4	747.23	770.99	173.88	701.36	748.88	138.79	472.32	835.08	457.35	528.43	828.89	484.46	514.84	755.52	474.97	466.06	762.06	448.51	760.88	537.1	162.65	809.89	570.7	180.14	818.66	503.83	190.7	772.54	475.97	163.9	393.28	409.5	437.77	450.31	398.53	436.73	434.41	325.67	422.29	379.12	334.27	422.04	711.67	69.725	141.11	687.07	90.793	172.73	696.71	59.515	207.18	273.74	87.887	335.03	281.53	115.96	299.6	303.15	84.309	275.5	909.18	83.113	273.59	910.2	86.021	158.33	959.88	112.72	247.86	512.05	43.348	296.62	464.3	36.421	408.16	560.07	41.951	355.85
274	1.1412	619.58	1540.5	502.01	600.81	1560.4	98.844	671.06	1858.3	319.44	696.72	1494.4	306.55	547.92	1588.1	310.73	583.68	1133	140.71	589.16	1140.9	476.5	657.2	1046.6	179.33	649.63	1044.6	448.42	573.61	963.8	116.46	533.94	972.26	480.9	436.66	1054.1	337.03	439.07	1045.8	251.35	426.11	1016.9	294.38	756.85	591.71	153.52	769.17	599.13	291.58	478.69	558.85	443.73	489.64	560.63	310.2	774.33	144.3	153.87	756.21	136	233.62	352.46	114.93	377.68	389.23	136.69	277.05	671.4	815.35	128.81	724.23	836.41	164.89	751.57	770.06	174.52	705.51	747.74	139.56	475.48	835.13	457.41	531.57	828.57	484.47	517.53	755.3	474.94	468.76	762.16	448.55	767.22	536.97	163.63	815.61	571.45	181.1	825.61	504.76	191.64	780	476.06	164.85	393.95	409.74	437.77	450.94	398.66	436.8	434.89	325.82	422.32	379.64	334.54	422.04	726.61	68.769	142.02	701.72	89.383	173.72	712.2	58.134	208.18	273.88	88.269	334.91	281.71	116.36	299.47	303.31	84.668	275.38	923.95	85.825	274.37	924.83	88.718	159.07	974.07	116.32	248.54	512.12	43.314	296.64	464.3	36.435	408.13	560.13	41.87	355.87
275	1.1453	624.33	1539.5	501.93	605.56	1559.5	98.761	675.82	1857.3	319.24	701.47	1493.3	306.46	552.7	1587.1	310.66	588.1	1131.9	140.62	593.46	1140	476.44	661.56	1045.5	179.34	653.97	1043.6	448.42	577.98	962.62	116.54	538	971.74	481	441.08	1053.5	336.95	443.46	1044.9	251.3	430.4	1016.2	294.38	762.12	591.32	154.5	774.48	599.01	292.54	479.95	558.88	443.74	490.77	560.6	310.21	787.79	144.35	154.79	769.95	135.74	234.57	352.6	115.14	377.56	389.48	136.88	277	675.76	814.15	129.18	728.5	835.4	165.32	755.9	769.07	175.13	709.6	746.53	140.33	478.66	835.15	457.48	534.74	828.22	484.47	520.25	755.05	474.91	471.49	762.24	448.59	773.49	536.79	164.6	821.25	572.13	182.03	832.48	505.64	192.54	787.37	476.13	165.79	394.62	409.97	437.77	451.58	398.78	436.86	435.38	325.98	422.36	380.17	334.81	422.05	741.38	67.934	142.99	716.22	88.097	174.78	727.45	56.888	209.22	274.01	88.644	334.79	281.88	116.75	299.34	303.46	85.022	275.27	938.53	88.622	275.13	939.23	91.484	159.79	988.04	119.99	249.18	512.2	43.283	296.65	464.29	36.445	408.1	560.18	41.789	355.89
276	1.1495	629.11	1538.5	501.84	610.31	1558.5	98.672	680.58	1856.3	319.03	706.23	1492.3	306.35	557.5	1586.1	310.57	592.5	1130.7	140.51	597.77	1139.1	476.38	665.92	1044.3	179.32	658.33	1042.7	448.4	582.36	961.38	116.61	542.09	971.19	481.11	445.52	1052.8	336.88	447.85	1044	251.24	434.71	1015.4	294.39	767.34	590.88	155.45	779.78	598.84	293.47	481.23	558.89	443.75	491.93	560.56	310.24	801.07	144.47	155.73	783.54	135.56	235.55	352.74	115.35	377.44	389.74	137.07	276.96	680.09	812.89	129.55	732.78	834.31	165.7	760.24	768.02	175.72	713.65	745.25	141.09	481.88	835.14	457.56	537.94	827.85	484.48	523	754.78	474.89	474.25	762.29	448.64	779.7	536.57	165.55	826.83	572.75	182.91	839.27	506.49	193.41	794.66	476.18	166.72	395.31	410.2	437.78	452.23	398.89	436.92	435.87	326.13	422.4	380.7	335.07	422.06	755.97	67.211	144.01	730.56	86.927	175.9	742.41	55.769	210.3	274.15	89.012	334.68	282.05	117.14	299.21	303.62	85.373	275.15	952.92	91.493	275.86	953.39	94.307	160.49	1001.8	123.7	249.76	512.27	43.254	296.67	464.28	36.453	408.07	560.23	41.71	355.91
277	1.1537	633.92	1537.4	501.74	615.06	1557.4	98.574	685.34	1855.2	318.81	711.02	1491.1	306.24	562.32	1585.1	310.48	596.9	1129.5	140.39	602.08	1138.1	476.31	670.3	1043.1	179.29	662.72	1041.7	448.37	586.73	960.1	116.68	546.21	970.61	481.22	449.97	1052.1	336.81	452.26	1043.1	251.19	439.03	1014.6	294.41	772.5	590.37	156.39	785.08	598.63	294.38	482.53	558.89	443.76	493.11	560.51	310.26	814.15	144.66	156.7	796.97	135.45	236.55	352.87	115.56	377.32	389.99	137.25	276.92	684.42	811.57	129.92	737.08	833.17	166.03	764.58	766.91	176.28	717.66	743.9	141.84	485.12	835.11	457.65	541.18	827.46	484.5	525.78	754.48	474.86	477.04	762.32	448.7	785.84	536.3	166.48	832.36	573.3	183.76	845.98	507.28	194.25	801.86	476.19	167.64	396.01	410.42	437.79	452.89	399	436.99	436.36	326.27	422.45	381.25	335.33	422.06	770.37	66.59	145.08	744.73	85.865	177.07	757.04	54.768	211.42	274.28	89.375	334.56	282.22	117.54	299.09	303.77	85.723	275.04	967.09	94.425	276.57	967.31	97.175	161.16	1015.4	127.45	250.3	512.34	43.228	296.69	464.27	36.456	408.05	560.28	41.631	355.93
278	1.1579	638.75	1536.2	501.64	619.83	1556.3	98.469	690.1	1854.1	318.59	715.82	1490	306.11	567.16	1584	310.39	601.29	1128.2	140.26	606.41	1137.1	476.23	674.69	1041.8	179.24	667.13	1040.6	448.32	591.12	958.76	116.74	550.36	970	481.34	454.44	1051.3	336.74	456.68	1042.1	251.15	443.38	1013.8	294.43	777.61	589.8	157.3	790.38	598.37	295.26	483.86	558.88	443.78	494.33	560.44	310.29	827.03	144.92	157.68	810.25	135.41	237.58	353	115.76	377.21	390.25	137.43	276.89	688.73	810.2	130.28	741.39	831.97	166.31	768.94	765.74	176.83	721.67	742.49	142.58	488.4	835.06	457.76	544.45	827.04	484.52	528.59	754.17	474.84	479.86	762.34	448.77	791.92	535.98	167.4	837.82	573.78	184.57	852.61	508.02	195.05	808.97	476.16	168.54	396.73	410.64	437.81	453.57	399.09	437.06	436.87	326.41	422.5	381.8	335.58	422.08	784.57	66.061	146.21	758.71	84.902	178.3	771.25	53.879	212.55	274.41	89.737	334.46	282.39	117.93	298.98	303.93	86.076	274.94	981.06	97.404	277.26	980.99	100.07	161.82	1028.7	131.23	250.81	512.41	43.205	296.71	464.25	36.455	408.03	560.32	41.553	355.96
279	1.1621	643.6	1535	501.52	624.59	1555.1	98.356	694.86	1853	318.36	720.65	1488.8	305.97	572.02	1582.9	310.28	605.69	1126.8	140.13	610.75	1136.1	476.14	679.09	1040.5	179.18	671.58	1039.6	448.26	595.52	957.38	116.8	554.53	969.37	481.46	458.94	1050.5	336.68	461.12	1041	251.11	447.74	1012.9	294.45	782.69	589.16	158.19	795.67	598.07	296.11	485.23	558.86	443.8	495.58	560.37	310.32	839.72	145.22	158.69	823.35	135.43	238.62	353.13	115.96	377.11	390.51	137.62	276.87	693.05	808.78	130.64	745.73	830.73	166.56	773.3	764.52	177.35	725.69	741.04	143.3	491.71	834.99	457.87	547.76	826.6	484.55	531.44	753.83	474.82	482.71	762.33	448.85	797.94	535.61	168.3	843.22	574.19	185.34	859.16	508.71	195.82	816	476.1	169.43	397.48	410.86	437.84	454.27	399.19	437.14	437.4	326.54	422.56	382.38	335.84	422.1	798.56	65.613	147.38	772.51	84.028	179.58	784.99	53.093	213.7	274.54	90.098	334.36	282.57	118.32	298.88	304.09	86.433	274.84	994.8	100.42	277.93	994.41	102.99	162.46	1041.8	135.01	251.27	512.47	43.184	296.73	464.24	36.449	408.01	560.37	41.475	355.98
280	1.1663	648.49	1533.8	501.4	629.37	1553.9	98.234	699.63	1851.8	318.12	725.5	1487.5	305.82	576.91	1581.7	310.17	610.09	1125.5	139.98	615.12	1135	476.04	683.52	1039.1	179.11	676.05	1038.5	448.18	599.95	955.96	116.85	558.74	968.71	481.58	463.46	1049.7	336.62	465.59	1039.9	251.06	452.14	1012	294.48	787.72	588.46	159.06	800.96	597.73	296.94	486.63	558.82	443.84	496.89	560.28	310.37	852.19	145.56	159.72	836.26	135.5	239.7	353.26	116.15	377.02	390.77	137.81	276.85	697.37	807.32	131	750.1	829.43	166.76	777.67	763.26	177.86	729.75	739.54	144	495.06	834.9	457.99	551.1	826.14	484.59	534.32	753.48	474.82	485.6	762.3	448.93	803.9	535.18	169.17	848.58	574.52	186.07	865.63	509.33	196.55	822.95	475.99	170.3	398.26	411.09	437.88	455	399.28	437.22	437.95	326.68	422.63	382.97	336.1	422.13	812.33	65.237	148.6	786.09	83.236	180.91	798.17	52.404	214.83	274.67	90.462	334.27	282.74	118.72	298.79	304.25	86.798	274.75	1008.3	103.45	278.58	1007.6	105.9	163.08	1054.6	138.79	251.71	512.53	43.167	296.75	464.22	36.437	408	560.41	41.397	356.01
281	1.1704	653.41	1532.6	501.27	634.15	1552.7	98.103	704.4	1850.6	317.87	730.37	1486.3	305.65	581.82	1580.5	310.05	614.51	1124	139.83	619.52	1133.9	475.94	687.98	1037.8	179.02	680.55	1037.4	448.1	604.39	954.5	116.9	562.98	968.03	481.71	468.01	1048.9	336.55	470.08	1038.8	251.02	456.56	1011.1	294.51	792.71	587.69	159.91	806.25	597.34	297.74	488.08	558.78	443.88	498.24	560.18	310.41	864.45	145.93	160.78	848.98	135.6	240.79	353.39	116.35	376.94	391.04	138	276.86	701.71	805.82	131.35	754.5	828.1	166.95	782.07	761.94	178.35	733.86	738	144.66	498.45	834.78	458.12	554.48	825.66	484.64	537.25	753.11	474.82	488.53	762.25	449.03	809.8	534.7	170.03	853.88	574.78	186.76	872.02	509.9	197.25	829.81	475.84	171.15	399.07	411.31	437.93	455.76	399.36	437.32	438.53	326.8	422.72	383.6	336.36	422.17	825.87	64.921	149.87	799.46	82.515	182.28	810.71	51.804	215.96	274.81	90.829	334.19	282.93	119.13	298.72	304.41	87.173	274.67	1021.6	106.49	279.21	1020.5	108.81	163.7	1067.2	142.55	252.12	512.59	43.154	296.78	464.2	36.418	408	560.45	41.319	356.05
282	1.1746	658.37	1531.2	501.13	638.94	1551.4	97.962	709.19	1849.4	317.61	735.27	1485	305.47	586.76	1579.3	309.92	618.95	1122.6	139.67	623.95	1132.7	475.82	692.46	1036.4	178.92	685.08	1036.2	448	608.86	953.01	116.94	567.25	967.33	481.84	472.58	1048	336.49	474.6	1037.6	250.98	461.01	1010.1	294.53	797.68	586.86	160.73	811.54	596.91	298.51	489.59	558.72	443.93	499.66	560.07	310.47	876.49	146.32	161.86	861.5	135.75	241.91	353.53	116.56	376.89	391.32	138.2	276.88	706.06	804.29	131.69	758.94	826.74	167.11	786.48	760.58	178.82	738.04	736.44	145.28	501.87	834.65	458.27	557.89	825.17	484.69	540.21	752.73	474.82	491.51	762.19	449.13	815.65	534.16	170.86	859.14	574.95	187.41	878.34	510.39	197.92	836.6	475.63	171.98	399.93	411.54	437.99	456.57	399.43	437.42	439.14	326.93	422.82	384.25	336.62	422.23	839.18	64.654	151.18	812.61	81.856	183.7	822.53	51.289	217.05	274.94	91.205	334.13	283.12	119.55	298.67	304.57	87.561	274.61	1034.6	109.51	279.84	1033.1	111.68	164.31	1079.6	146.27	252.51	512.64	43.145	296.82	464.18	36.393	408	560.48	41.241	356.08
